<?xml version="1.0" standalone="no"?>
<!DOCTYPE svg PUBLIC "-//W3C//DTD SVG 20010904//EN"
 "http://www.w3.org/TR/2001/REC-SVG-20010904/DTD/svg10.dtd">
<svg version="1.0" xmlns="http://www.w3.org/2000/svg"
 width="512.000000pt" height="512.000000pt" viewBox="0 0 512.000000 512.000000"
 preserveAspectRatio="xMidYMid meet">

<g transform="translate(0.000000,512.000000) scale(0.100000,-0.100000)" stroke="none">
<path d="M2393 4945 c-201 -36 -383 -134 -524 -283 -182 -190 -269 -416 -269
-702 l0 -117 -122 -5 c-100 -5 -136 -10 -191 -31 -158 -61 -280 -193 -324
-352 -15 -53 -29 -318 -104 -1887 -48 -1009 -49 -980 15 -1115 66 -138 211
-250 364 -282 37 -8 440 -11 1325 -11 1401 0 1338 -2 1461 63 88 46 175 136
220 228 66 133 65 104 17 1117 -75 1569 -89 1834 -104 1887 -22 80 -65 155
-125 217 -112 117 -206 157 -388 165 l-121 6 -6 156 c-7 227 -50 368 -162 536
-206 310 -596 476 -962 410z m302 -320 c181 -38 349 -168 433 -335 53 -106 72
-193 72 -337 l0 -113 -640 0 -640 0 0 113 c0 142 19 230 71 337 126 255 419
395 704 335z m-808 -1315 c106 -48 120 -195 25 -268 -47 -35 -135 -39 -179 -6
-89 66 -99 179 -21 251 49 46 108 54 175 23z m1501 -7 c97 -72 96 -195 -1
-267 -44 -33 -132 -29 -179 6 -93 71 -82 213 19 268 47 25 122 22 161 -7z"/>
</g>
</svg>
