<?xml version="1.0" standalone="no"?>
<!DOCTYPE svg PUBLIC "-//W3C//DTD SVG 20010904//EN"
 "http://www.w3.org/TR/2001/REC-SVG-20010904/DTD/svg10.dtd">
<svg version="1.0" xmlns="http://www.w3.org/2000/svg"
 width="512.000000pt" height="512.000000pt" viewBox="0 0 512.000000 512.000000"
 preserveAspectRatio="xMidYMid meet">

<g transform="translate(0.000000,512.000000) scale(0.100000,-0.100000)"
fill="#000000" stroke="none">
<path d="M169 4987 c-94 -27 -156 -101 -166 -199 -10 -100 64 -212 156 -238
20 -5 153 -10 297 -10 247 0 262 -1 279 -20 14 -16 52 -253 196 -1247 134
-920 185 -1248 205 -1309 66 -208 256 -378 472 -423 37 -8 432 -11 1318 -11
1418 0 1338 -4 1489 73 141 72 265 221 310 375 8 27 101 473 206 993 139 689
189 957 186 991 -6 66 -50 135 -111 173 l-49 30 -1847 3 -1846 2 -23 163 c-32
230 -48 301 -83 374 -55 118 -172 219 -306 266 -51 18 -88 20 -347 23 -215 3
-302 0 -336 -9z"/>
<path d="M1700 1294 c-195 -51 -351 -196 -415 -388 -73 -217 -21 -439 139
-601 124 -125 244 -177 411 -177 168 -1 302 58 420 184 312 330 152 870 -290
983 -73 19 -192 18 -265 -1z"/>
<path d="M3730 1294 c-278 -75 -468 -338 -446 -618 12 -151 69 -271 180 -381
117 -116 251 -170 421 -169 216 1 414 121 519 315 57 104 81 277 55 401 -43
211 -230 403 -440 453 -80 19 -217 18 -289 -1z"/>
</g>
</svg>
