<?xml version="1.0" standalone="no"?>
<!DOCTYPE svg PUBLIC "-//W3C//DTD SVG 20010904//EN"
 "http://www.w3.org/TR/2001/REC-SVG-20010904/DTD/svg10.dtd">
<svg version="1.0" xmlns="http://www.w3.org/2000/svg"
 width="471.000000pt" height="258.000000pt" viewBox="0 0 471.000000 258.000000"
 preserveAspectRatio="xMidYMid meet">

<g transform="translate(0.000000,258.000000) scale(0.100000,-0.100000)" stroke="none">
<path d="M1195 2554 c-47 -25 -1143 -1123 -1167 -1169 -28 -54 -28 -136 0
-190 30 -59 1126 -1150 1174 -1170 176 -72 358 111 279 280 -13 26 -143 163
-380 400 -199 198 -361 363 -361 367 0 5 857 8 1903 8 l1904 0 44 23 c68 36
103 93 107 175 4 81 -21 138 -81 186 l-39 31 -1919 3 c-1055 1 -1919 6 -1919
10 0 4 164 171 365 372 394 394 403 405 393 494 -7 60 -50 130 -100 163 -51
34 -155 43 -203 17z"/>
</g>
</svg>
